<?xml version="1.0" standalone="yes"?>

<svg version="1.1" viewBox="0.0 0.0 960.0 720.0" fill="none" stroke="none" stroke-linecap="square" stroke-miterlimit="10" xmlns="http://www.w3.org/2000/svg" xmlns:xlink="http://www.w3.org/1999/xlink"><clipPath id="p.0"><path d="m0 0l960.0 0l0 720.0l-960.0 0l0 -720.0z" clip-rule="nonzero"></path></clipPath><g clip-path="url(#p.0)"><path fill="#000000" fill-opacity="0.0" d="m0 0l960.0 0l0 720.0l-960.0 0z" fill-rule="nonzero"></path><path fill="#9b91b4" d="m0 -8.958005l960.0 0l0 720.0l-960.0 0z" fill-rule="nonzero"></path><path stroke="#000000" stroke-width="1.0" stroke-linejoin="round" stroke-linecap="butt" d="m0 -8.958005l960.0 0l0 720.0l-960.0 0z" fill-rule="nonzero"></path><path fill="#b6d7a8" d="m469.74 638.02625l-35.947174 0l0 0c-2.3835144 0 -4.669403 -0.9468384 -6.3547974 -2.6322632c-1.6853943 -1.6853638 -2.6322327 -3.9712524 -2.6322327 -6.3547974l0 -58.796143c0 -11.791626 9.5589905 -21.350647 21.350647 -21.350647l11.21994 0c11.7916565 0 21.350647 9.559021 21.350647 21.350647l0 58.796143l0 0c0 4.96344 -4.0236206 8.987061 -8.98703 8.987061z" fill-rule="nonzero"></path><path stroke="#999999" stroke-width="1.0" stroke-linejoin="round" stroke-linecap="butt" stroke-dasharray="1.0,3.0" d="m469.74 638.02625l-35.947174 0l0 0c-2.3835144 0 -4.669403 -0.9468384 -6.3547974 -2.6322632c-1.6853943 -1.6853638 -2.6322327 -3.9712524 -2.6322327 -6.3547974l0 -58.796143c0 -11.791626 9.5589905 -21.350647 21.350647 -21.350647l11.21994 0c11.7916565 0 21.350647 9.559021 21.350647 21.350647l0 58.796143l0 0c0 4.96344 -4.0236206 8.987061 -8.98703 8.987061z" fill-rule="nonzero"></path><path fill="#b6d7a8" d="m403.31027 128.60548l0 0c26.466156 -52.149597 97.50836 -69.25444 158.67715 -38.204727l0 0c61.168823 31.049713 89.30084 98.49608 62.834656 150.64568l0 0c-26.466187 52.149582 -97.50836 69.25444 -158.67719 38.204727l0 0c-61.168793 -31.049713 -89.30081 -98.49608 -62.834625 -150.64568z" fill-rule="nonzero"></path><path fill="#93c47d" d="m402.58792 145.69818l-28.929108 -52.204727l58.944855 9.212593z" fill-rule="nonzero"></path><path fill="#b6d7a8" d="m382.52756 438.51968l0 0c0 -77.13721 57.039642 -139.66928 127.40158 -139.66928l0 0c33.789 0 66.19409 14.715118 90.08649 40.908173c23.892456 26.193085 37.315063 61.718506 37.315063 98.76111l0 0c0 77.13724 -57.03961 139.66928 -127.40155 139.66928l0 0c-70.36194 0 -127.40158 -62.532043 -127.40158 -139.66928z" fill-rule="nonzero"></path><path fill="#b6d7a8" d="m662.6227 207.94789l-19.906738 60.177658c-0.81433105 2.4615479 -2.573059 4.4987183 -4.8893433 5.663391c-2.3163452 1.1646423 -5.0004883 1.3613892 -7.461975 0.54693604l-46.40399 -15.354279c-3.6621094E-4 -1.2207031E-4 -5.493164E-4 -5.187988E-4 -4.272461E-4 -8.8500977E-4l26.047668 -78.73927l0 0c1.2207031E-4 -3.6621094E-4 5.493164E-4 -5.493164E-4 8.544922E-4 -4.4250488E-4l46.4032 15.354721l0 0c5.1257324 1.6960144 7.906433 7.2262726 6.2107544 12.352173z" fill-rule="nonzero"></path><path fill="#b6d7a8" d="m453.15216 158.04738l0 0c-8.393005 0.8349457 -15.817322 -4.706848 -16.582703 -12.37796q-0.7367859 -7.3846283 -2.4358215 -14.673523q8.167297 0.07572937 16.246857 -0.7280426l0 0c8.392975 -0.8349457 15.817291 4.706848 16.582672 12.377945l0 0c0.76538086 7.671112 -5.41803 14.566635 -13.811005 15.401581z" fill-rule="nonzero"></path><path fill="#b6d7a8" d="m491.1391 287.43307l39.905518 0l0 23.62204l-39.905518 0z" fill-rule="nonzero"></path><path fill="#e69138" d="m480.55118 81.698166l22.393707 -43.496067l22.393677 43.496067z" fill-rule="nonzero"></path><path fill="#ffe599" d="m432.82156 101.34602l1.5433044 -60.377953l43.62207 41.795273z" fill-rule="nonzero"></path><path fill="#a2c4c9" d="m398.8214 192.28004l-42.472443 -24.220474l44.393707 -20.503937z" fill-rule="nonzero"></path><path fill="#ea9999" d="m531.6428 85.73218l27.086609 -27.6063l5.543335 38.283463z" fill-rule="nonzero"></path><path fill="#b4a7d6" d="m451.14682 267.32547l-39.543304 15.433075l10.787415 -41.070877z" fill-rule="nonzero"></path><path fill="#a4c2f4" d="m416.25684 235.81195l-48.80313 -3.4803162l31.196838 -37.685043z" fill-rule="nonzero"></path><path fill="#b6d7a8" d="m343.9771 490.6167l-2.8661194 -48.81891l41.417328 26.015747z" fill-rule="nonzero"></path><path fill="#b6d7a8" d="m304.2033 510.9797l0 -48.92914l39.811035 28.425201z" fill-rule="nonzero"></path><path fill="#b6d7a8" d="m259.87604 535.8573l0.40945435 -48.91339l39.590546 28.75592z" fill-rule="nonzero"></path><path fill="#b6d7a8" d="m222.77382 564.79785l0.8818817 -48.91339l39.3071 29.13385z" fill-rule="nonzero"></path><path fill="#b6d7a8" d="m392.5397 390.80377l-22.944885 -43.212616l48.48819 6.4252014z" fill-rule="nonzero"></path><path fill="#b6d7a8" d="m422.0607 349.69968l-12.409454 -47.3071l45.7323 17.385834z" fill-rule="nonzero"></path><path fill="#d5a6bd" d="m480.5512 285.32043l-24.472443 13.007874l-0.03149414 -27.748047z" fill-rule="nonzero"></path><path fill="#b6d7a8" d="m491.1391 570.8583l0 -169.32285l-328.22046 169.32285z" fill-rule="nonzero"></path><path fill="#b6d7a8" d="m207.61154 594.063l-73.700775 -33.102356l73.700775 -33.102356z" fill-rule="nonzero"></path><path fill="#b6d7a8" d="m523.01575 210.08684l0 0c-4.520935 -23.891556 -3.0042725 -47.90773 3.9484863 -62.523407c6.952759 -14.615662 18.218018 -17.468903 29.32782 -7.4280853c11.109802 10.040817 20.268799 31.353088 23.844421 55.484085z" fill-rule="nonzero"></path><path stroke="#999999" stroke-width="1.0" stroke-linejoin="round" stroke-linecap="butt" d="m523.01575 210.08684l0 0c-4.520935 -23.891556 -3.0042725 -47.90773 3.9484863 -62.523407c6.952759 -14.615662 18.218018 -17.468903 29.32782 -7.4280853c11.109802 10.040817 20.268799 31.353088 23.844421 55.484085z" fill-rule="nonzero"></path><path fill="#b6d7a8" d="m632.2121 221.80853l0 0c-4.8879395 -8.375595 -3.336792 -18.380447 3.4645996 -22.34645c6.8013306 -3.9660187 16.277405 -0.39134216 21.165344 7.984253l-6.1574707 3.5905457c-2.9037476 -4.9756165 -8.014465 -7.401596 -11.415161 -5.4185944c-3.4006958 1.983017 -3.8035278 7.6240845 -0.8997803 12.599701z" fill-rule="nonzero"></path><path stroke="#999999" stroke-width="1.0" stroke-linejoin="round" stroke-linecap="butt" d="m632.2121 221.80853l0 0c-4.8879395 -8.375595 -3.336792 -18.380447 3.4645996 -22.34645c6.8013306 -3.9660187 16.277405 -0.39134216 21.165344 7.984253l-6.1574707 3.5905457c-2.9037476 -4.9756165 -8.014465 -7.401596 -11.415161 -5.4185944c-3.4006958 1.983017 -3.8035278 7.6240845 -0.8997803 12.599701z" fill-rule="nonzero"></path><path fill="#b6d7a8" d="m289.9662 434.5643l0 0c0 -27.04889 14.222687 -48.97638 31.767242 -48.97638c17.544556 0 31.767242 21.92749 31.767242 48.97638l0 0c-7.499237 -15.41568 -19.268524 -24.48819 -31.767242 -24.48819c-12.498718 0 -24.268005 9.07251 -31.767242 24.48819z" fill-rule="nonzero"></path><path stroke="#999999" stroke-width="1.0" stroke-linejoin="round" stroke-linecap="butt" stroke-dasharray="1.0,3.0" d="m289.9662 434.5643l0 0c0 -27.04889 14.222687 -48.97638 31.767242 -48.97638c17.544556 0 31.767242 21.92749 31.767242 48.97638l0 0c-7.499237 -15.41568 -19.268524 -24.48819 -31.767242 -24.48819c-12.498718 0 -24.268005 9.07251 -31.767242 24.48819z" fill-rule="nonzero"></path><path fill="#b6d7a8" d="m353.50067 434.5643l0 0c0 -27.04889 14.222656 -48.97638 31.767212 -48.97638c17.544586 0 31.767242 21.92749 31.767242 48.97638l0 0c-7.4992065 -15.41568 -19.268524 -24.48819 -31.767242 -24.48819c-12.498688 0 -24.268005 9.07251 -31.767212 24.48819z" fill-rule="nonzero"></path><path stroke="#999999" stroke-width="1.0" stroke-linejoin="round" stroke-linecap="butt" stroke-dasharray="1.0,3.0" d="m353.50067 434.5643l0 0c0 -27.04889 14.222656 -48.97638 31.767212 -48.97638c17.544586 0 31.767242 21.92749 31.767242 48.97638l0 0c-7.4992065 -15.41568 -19.268524 -24.48819 -31.767242 -24.48819c-12.498688 0 -24.268005 9.07251 -31.767212 24.48819z" fill-rule="nonzero"></path><path fill="#b6d7a8" d="m417.03513 434.26248l0 0c0 -27.04892 14.222687 -48.97638 31.767242 -48.97638c17.544556 0 31.767242 21.92746 31.767242 48.97638l0 0c-7.499237 -15.41568 -19.268524 -24.48819 -31.767242 -24.48819c-12.498718 0 -24.268005 9.07251 -31.767242 24.48819z" fill-rule="nonzero"></path><path stroke="#999999" stroke-width="1.0" stroke-linejoin="round" stroke-linecap="butt" stroke-dasharray="1.0,3.0" d="m417.03513 434.26248l0 0c0 -27.04892 14.222687 -48.97638 31.767242 -48.97638c17.544556 0 31.767242 21.92746 31.767242 48.97638l0 0c-7.499237 -15.41568 -19.268524 -24.48819 -31.767242 -24.48819c-12.498718 0 -24.268005 9.07251 -31.767242 24.48819z" fill-rule="nonzero"></path><path fill="#b6d7a8" d="m292.43384 430.7638l0 0c0 -65.143524 41.661133 -117.95276 93.052704 -117.95276c51.3916 0 93.052704 52.809235 93.052704 117.95276l0 0c-21.966766 -37.126495 -56.441437 -58.97638 -93.052704 -58.97638c-36.611267 0 -71.08594 21.849884 -93.052704 58.97638z" fill-rule="nonzero"></path><path stroke="#999999" stroke-width="1.0" stroke-linejoin="round" stroke-linecap="butt" stroke-dasharray="1.0,3.0" d="m292.43384 430.7638l0 0c0 -65.143524 41.661133 -117.95276 93.052704 -117.95276c51.3916 0 93.052704 52.809235 93.052704 117.95276l0 0c-21.966766 -37.126495 -56.441437 -58.97638 -93.052704 -58.97638c-36.611267 0 -71.08594 21.849884 -93.052704 58.97638z" fill-rule="nonzero"></path><path fill="#b6d7a8" d="m389.84088 341.34647l0 0c15.660706 12.367676 14.091614 35.155334 -3.5046997 50.897614q-18.216187 16.296844 -32.3638 35.806732q-11.640991 -16.893097 -27.853394 -29.696472l0 0c-15.660706 -12.367706 -14.091614 -35.155365 3.5046997 -50.897644l0 0c17.596313 -15.742279 44.556458 -18.477936 60.217194 -6.1102295z" fill-rule="nonzero"></path><path fill="#b6d7a8" d="m445.94418 345.91287l0 0c15.660736 12.367706 15.408997 33.977905 -0.56225586 48.26773q-17.13086 15.327393 -29.02237 34.79245q-11.454559 -18.046448 -28.25235 -31.312134l0 0c-15.660736 -12.367706 -15.408997 -33.977905 0.56225586 -48.26773l0 0c15.971222 -14.289825 41.614014 -15.847992 57.27472 -3.4803162z" fill-rule="nonzero"></path><path fill="#d9ead3" d="m512.3097 438.37796l0 0c0 -56.08084 27.991028 -101.543304 62.519714 -101.543304l0 0c16.581238 0 32.483337 10.698273 44.20807 29.741333c11.724731 19.04306 18.311584 44.871002 18.311584 71.80197l0 0c0 56.08081 -27.990967 101.543304 -62.519653 101.543304l0 0c-34.528687 0 -62.519714 -45.462494 -62.519714 -101.543304z" fill-rule="nonzero"></path><path fill="#000000" fill-opacity="0.0" d="m520.70325 388.49146l0 0c15.450317 -15.047974 36.2016 -23.112305 56.984802 -22.145386c20.783203 0.96691895 39.599304 10.872101 51.670654 27.20047l-59.534546 45.820953z" fill-rule="nonzero"></path><path fill="#000000" fill-opacity="0.0" d="m520.70325 388.49146l0 0c15.450317 -15.047974 36.2016 -23.112305 56.984802 -22.145386c20.783203 0.96691895 39.599304 10.872101 51.670654 27.20047" fill-rule="nonzero"></path><path stroke="#666666" stroke-width="1.0" stroke-linejoin="round" stroke-linecap="butt" stroke-dasharray="1.0,3.0" d="m520.70325 388.49146l0 0c15.450317 -15.047974 36.2016 -23.112305 56.984802 -22.145386c20.783203 0.96691895 39.599304 10.872101 51.670654 27.20047" fill-rule="nonzero"></path><path fill="#000000" fill-opacity="0.0" d="m515.95166 477.78467l0 0c16.701721 -16.3302 38.959656 -25.276398 61.083557 -24.551483c22.123962 0.72488403 41.96942 11.050629 54.463074 28.337463l-64.19385 49.397858z" fill-rule="nonzero"></path><path fill="#000000" fill-opacity="0.0" d="m515.95166 477.78467l0 0c16.701721 -16.3302 38.959656 -25.276398 61.083557 -24.551483c22.123962 0.72488403 41.96942 11.050629 54.463074 28.337463" fill-rule="nonzero"></path><path stroke="#666666" stroke-width="1.0" stroke-linejoin="round" stroke-linecap="butt" stroke-dasharray="1.0,3.0" d="m515.95166 477.78467l0 0c16.701721 -16.3302 38.959656 -25.276398 61.083557 -24.551483c22.123962 0.72488403 41.96942 11.050629 54.463074 28.337463" fill-rule="nonzero"></path><path fill="#000000" fill-opacity="0.0" d="m514.3226 435.9599l0 0c17.61322 -17.193481 41.17096 -26.518341 64.66998 -25.598267c23.499023 0.920105 44.66974 11.996277 58.117126 30.405914l-67.77899 52.169464z" fill-rule="nonzero"></path><path fill="#000000" fill-opacity="0.0" d="m514.3226 435.9599l0 0c17.61322 -17.193481 41.17096 -26.518341 64.66998 -25.598267c23.499023 0.920105 44.66974 11.996277 58.117126 30.405914" fill-rule="nonzero"></path><path stroke="#666666" stroke-width="1.0" stroke-linejoin="round" stroke-linecap="butt" stroke-dasharray="1.0,3.0" d="m514.3226 435.9599l0 0c17.61322 -17.193481 41.17096 -26.518341 64.66998 -25.598267c23.499023 0.920105 44.66974 11.996277 58.117126 30.405914" fill-rule="nonzero"></path><path fill="#000000" fill-opacity="0.0" d="m529.53424 513.4775l0 0c13.762024 -13.648285 31.557495 -21.721497 48.705566 -22.0961c17.148071 -0.37460327 31.932129 6.9868774 40.46344 20.148163l-52.23871 40.205383z" fill-rule="nonzero"></path><path fill="#000000" fill-opacity="0.0" d="m529.53424 513.4775l0 0c13.762024 -13.648285 31.557495 -21.721497 48.705566 -22.0961c17.148071 -0.37460327 31.932129 6.9868774 40.46344 20.148163" fill-rule="nonzero"></path><path stroke="#666666" stroke-width="1.0" stroke-linejoin="round" stroke-linecap="butt" stroke-dasharray="1.0,3.0" d="m529.53424 513.4775l0 0c13.762024 -13.648285 31.557495 -21.721497 48.705566 -22.0961c17.148071 -0.37460327 31.932129 6.9868774 40.46344 20.148163" fill-rule="nonzero"></path><path fill="#999999" d="m538.3202 179.88977l0 0c0 -11.228348 8.221069 -20.330719 18.362244 -20.330719l0 0c4.869934 0 9.540466 2.141983 12.984009 5.954727c3.4436035 3.8127441 5.378174 8.983948 5.378174 14.375992l0 0c0 11.2283325 -8.221008 20.330704 -18.362183 20.330704l0 0c-10.141174 0 -18.362244 -9.102371 -18.362244 -20.330704z" fill-rule="nonzero"></path><path fill="#93c47d" d="m507.82315 607.2467l0 0c23.005096 0 41.65439 6.564148 41.65439 14.661438q0 7.3306885 0 14.661438q-20.82721 0 -41.65439 0l0 0c-23.005096 0 -41.65439 -6.564148 -41.65439 -14.661438l0 0c0 -3.8884277 4.3885803 -7.6176147 12.200287 -10.3671875c7.8117065 -2.7495728 18.406677 -4.2942505 29.454102 -4.2942505z" fill-rule="nonzero"></path><path stroke="#999999" stroke-width="1.0" stroke-linejoin="round" stroke-linecap="butt" stroke-dasharray="1.0,3.0" d="m507.82315 607.2467l0 0c23.005096 0 41.65439 6.564148 41.65439 14.661438q0 7.3306885 0 14.661438q-20.82721 0 -41.65439 0l0 0c-23.005096 0 -41.65439 -6.564148 -41.65439 -14.661438l0 0c0 -3.8884277 4.3885803 -7.6176147 12.200287 -10.3671875c7.8117065 -2.7495728 18.406677 -4.2942505 29.454102 -4.2942505z" fill-rule="nonzero"></path><path fill="#b6d7a8" d="m514.52985 638.02625l-56.562836 0l0 0c-3.7504578 0 -7.3473206 -1.4898682 -9.999298 -4.1418457c-2.651947 -2.6519775 -4.141815 -6.2488403 -4.141815 -9.999268l0 -84.295105c0 -18.554138 15.041107 -33.595276 33.595245 -33.595276l17.654572 0c18.554169 0 33.595245 15.041138 33.595245 33.595276l0 84.295105l0 0c0 7.8099365 -6.3311768 14.141113 -14.141113 14.141113z" fill-rule="nonzero"></path><path stroke="#999999" stroke-width="1.0" stroke-linejoin="round" stroke-linecap="butt" stroke-dasharray="1.0,3.0" d="m514.52985 638.02625l-56.562836 0l0 0c-3.7504578 0 -7.3473206 -1.4898682 -9.999298 -4.1418457c-2.651947 -2.6519775 -4.141815 -6.2488403 -4.141815 -9.999268l0 -84.295105c0 -18.554138 15.041107 -33.595276 33.595245 -33.595276l17.654572 0c18.554169 0 33.595245 15.041138 33.595245 33.595276l0 84.295105l0 0c0 7.8099365 -6.3311768 14.141113 -14.141113 14.141113z" fill-rule="nonzero"></path><path fill="#000000" fill-opacity="0.0" d="m648.62946 250.45154l0 0c-17.163635 1.1711426 -34.50891 -1.4635468 -47.071472 -7.1499786c-12.5625 -5.686432 -18.957642 -13.797836 -17.35492 -22.012604l56.387512 2.49057z" fill-rule="nonzero"></path><path fill="#000000" fill-opacity="0.0" d="m648.62946 250.45154l0 0c-17.163635 1.1711426 -34.50891 -1.4635468 -47.071472 -7.1499786c-12.5625 -5.686432 -18.957642 -13.797836 -17.35492 -22.012604" fill-rule="nonzero"></path><path stroke="#666666" stroke-width="1.0" stroke-linejoin="round" stroke-linecap="butt" stroke-dasharray="1.0,3.0" d="m648.62946 250.45154l0 0c-17.163635 1.1711426 -34.50891 -1.4635468 -47.071472 -7.1499786c-12.5625 -5.686432 -18.957642 -13.797836 -17.35492 -22.012604" fill-rule="nonzero"></path><path fill="#000000" fill-opacity="0.0" d="m629.151 251.6816l-13.149658 16.83464l-4.1417236 -20.960632z" fill-rule="nonzero"></path><path stroke="#666666" stroke-width="1.0" stroke-linejoin="round" stroke-linecap="butt" stroke-dasharray="1.0,3.0" d="m629.151 251.6816l-13.149658 16.83464l-4.1417236 -20.960632z" fill-rule="nonzero"></path><path fill="#000000" fill-opacity="0.0" d="m451.76642 165.82677l0 0c-13.4461975 0 -24.346466 -11.182297 -24.346466 -24.97638q0 -12.48819 0 -24.976372q12.173218 0 24.346466 0l0 0c13.446167 0 24.346436 11.182304 24.346436 24.976372l0 0c0 13.794083 -10.900269 24.97638 -24.346436 24.97638z" fill-rule="nonzero"></path><path stroke="#666666" stroke-width="1.0" stroke-linejoin="round" stroke-linecap="butt" stroke-dasharray="1.0,3.0" d="m451.76642 165.82677l0 0c-13.4461975 0 -24.346466 -11.182297 -24.346466 -24.97638q0 -12.48819 0 -24.976372q12.173218 0 24.346466 0l0 0c13.446167 0 24.346436 11.182304 24.346436 24.976372l0 0c0 13.794083 -10.900269 24.97638 -24.346436 24.97638z" fill-rule="nonzero"></path><path fill="#000000" fill-opacity="0.0" d="m456.52625 161.25984l0 0c-10.254242 0 -18.566925 -7.6569824 -18.566925 -17.102356q0 -8.551193 0 -17.102371q9.283447 0 18.566925 0l0 0c10.254242 0 18.566925 7.6569977 18.566925 17.102371l0 0c0 9.445374 -8.312683 17.102356 -18.566925 17.102356z" fill-rule="nonzero"></path><path stroke="#666666" stroke-width="1.0" stroke-linejoin="round" stroke-linecap="butt" stroke-dasharray="1.0,3.0" d="m456.52625 161.25984l0 0c-10.254242 0 -18.566925 -7.6569824 -18.566925 -17.102356q0 -8.551193 0 -17.102371q9.283447 0 18.566925 0l0 0c10.254242 0 18.566925 7.6569977 18.566925 17.102371l0 0c0 9.445374 -8.312683 17.102356 -18.566925 17.102356z" fill-rule="nonzero"></path></g></svg>

