<?xml version="1.0" standalone="yes"?>

<svg version="1.1" viewBox="0.0 0.0 960.0 720.0" fill="none" stroke="none" stroke-linecap="square" stroke-miterlimit="10" xmlns="http://www.w3.org/2000/svg" xmlns:xlink="http://www.w3.org/1999/xlink"><clipPath id="p.0"><path d="m0 0l960.0 0l0 720.0l-960.0 0l0 -720.0z" clip-rule="nonzero"></path></clipPath><g clip-path="url(#p.0)"><path fill="#000000" fill-opacity="0.0" d="m0 0l960.0 0l0 720.0l-960.0 0z" fill-rule="nonzero"></path><path fill="#cfe2f3" d="m669.3652 374.32288l0 0c4.2529907 -9.541046 16.105103 -13.524658 26.472412 -8.897644q18.771667 8.37796 45.24414 -0.51968384q-26.472473 8.897644 -34.17328 26.173218l0 0c-4.2529907 9.541046 -16.105103 13.524658 -26.472412 8.897644l0 0c-10.36731 -4.627014 -15.323914 -16.112488 -11.070862 -25.653534z" fill-rule="nonzero"></path><path fill="#cfe2f3" d="m606.1496 461.7929l0 0c0 -7.0334473 5.701721 -12.735168 12.735168 -12.735168l50.939148 0l0 0c3.3775635 0 6.6168213 1.3417358 9.005127 3.7300415c2.3883057 2.3883057 3.7300415 5.6275635 3.7300415 9.005127l0 68.70288c0 7.0334473 -5.701782 12.735168 -12.735168 12.735168l-50.939148 0c-7.0334473 0 -12.735168 -5.701721 -12.735168 -12.735168z" fill-rule="nonzero"></path><path stroke="#999999" stroke-width="1.0" stroke-linejoin="round" stroke-linecap="butt" stroke-dasharray="1.0,3.0" d="m606.1496 461.7929l0 0c0 -7.0334473 5.701721 -12.735168 12.735168 -12.735168l50.939148 0l0 0c3.3775635 0 6.6168213 1.3417358 9.005127 3.7300415c2.3883057 2.3883057 3.7300415 5.6275635 3.7300415 9.005127l0 68.70288c0 7.0334473 -5.701782 12.735168 -12.735168 12.735168l-50.939148 0c-7.0334473 0 -12.735168 -5.701721 -12.735168 -12.735168z" fill-rule="nonzero"></path><path fill="#cfe2f3" d="m417.49344 501.47263l0 0c0 -5.1866455 4.2046204 -9.391266 9.391266 -9.391266l57.626923 0c2.4907227 0 4.879425 0.9894409 6.640625 2.7506409c1.7612 1.7612 2.7506409 4.1499023 2.7506409 6.640625l0 37.563934c0 5.1866455 -4.2046204 9.391235 -9.391266 9.391235l-57.626923 0c-5.1866455 0 -9.391266 -4.20459 -9.391266 -9.391235z" fill-rule="nonzero"></path><path stroke="#999999" stroke-width="1.0" stroke-linejoin="round" stroke-linecap="butt" stroke-dasharray="1.0,3.0" d="m417.49344 501.47263l0 0c0 -5.1866455 4.2046204 -9.391266 9.391266 -9.391266l57.626923 0c2.4907227 0 4.879425 0.9894409 6.640625 2.7506409c1.7612 1.7612 2.7506409 4.1499023 2.7506409 6.640625l0 37.563934c0 5.1866455 -4.2046204 9.391235 -9.391266 9.391235l-57.626923 0c-5.1866455 0 -9.391266 -4.20459 -9.391266 -9.391235z" fill-rule="nonzero"></path><path fill="#cfe2f3" d="m338.00787 402.74802l0 0c0 -65.630554 81.88605 -118.834625 182.89764 -118.834625l0 0c101.0116 0 182.89764 53.20407 182.89764 118.834625l0 0c0 65.630585 -81.88605 118.83469 -182.89764 118.83469l0 0c-101.0116 0 -182.89764 -53.2041 -182.89764 -118.83469z" fill-rule="nonzero"></path><path stroke="#999999" stroke-width="1.0" stroke-linejoin="round" stroke-linecap="butt" stroke-dasharray="1.0,3.0" d="m338.00787 402.74802l0 0c0 -65.630554 81.88605 -118.834625 182.89764 -118.834625l0 0c101.0116 0 182.89764 53.20407 182.89764 118.834625l0 0c0 65.630585 -81.88605 118.83469 -182.89764 118.83469l0 0c-101.0116 0 -182.89764 -53.2041 -182.89764 -118.83469z" fill-rule="nonzero"></path><path fill="#cfe2f3" d="m393.36484 490.3441l0 0c0 -7.0334473 5.701721 -12.735168 12.735168 -12.735168l50.939117 0l0 0c3.3775635 0 6.616791 1.3417358 9.005127 3.7300415c2.3883057 2.3883057 3.7300415 5.6275635 3.7300415 9.005127l0 52.482452c0 7.033386 -5.7017517 12.735168 -12.735168 12.735168l-50.939117 0c-7.0334473 0 -12.735168 -5.701782 -12.735168 -12.735168z" fill-rule="nonzero"></path><path fill="#cfe2f3" d="m581.2493 483.3992l0 0c0 -7.0334167 5.701721 -12.735168 12.735168 -12.735168l50.939148 0l0 0c3.3775635 0 6.6168213 1.3417358 9.005127 3.7300415c2.3883057 2.3883057 3.7300415 5.6275635 3.7300415 9.005127l0 59.443085c0 7.033386 -5.701721 12.735168 -12.735168 12.735168l-50.939148 0c-7.0334473 0 -12.735168 -5.701782 -12.735168 -12.735168z" fill-rule="nonzero"></path><path fill="#cfe2f3" d="m203.52493 382.70078l0 0c0 -36.659515 41.33081 -66.37793 92.31497 -66.37793l0 0c50.98413 0 92.31494 29.718414 92.31494 66.37793l0 0c0 36.659546 -41.33081 66.37796 -92.31494 66.37796l0 0c-50.98416 0 -92.31497 -29.718414 -92.31497 -66.37796z" fill-rule="nonzero"></path><path stroke="#999999" stroke-width="1.0" stroke-linejoin="round" stroke-linecap="butt" stroke-dasharray="1.0,3.0" d="m203.52493 382.70078l0 0c0 -36.659515 41.33081 -66.37793 92.31497 -66.37793l0 0c50.98413 0 92.31494 29.718414 92.31494 66.37793l0 0c0 36.659546 -41.33081 66.37796 -92.31494 66.37796l0 0c-50.98416 0 -92.31497 -29.718414 -92.31497 -66.37796z" fill-rule="nonzero"></path><path fill="#cfe2f3" d="m316.72968 290.31476l0 0c-3.1049805 -3.2615051 -1.9839172 -9.38147 2.5039368 -13.669281q4.7420654 -4.5307007 8.544495 -10.048462q1.9226685 4.743927 5.2035217 8.190186l0 0c3.1049805 3.2615356 1.9839172 9.38147 -2.5039368 13.669312l0 0c-4.487854 4.2878113 -10.643066 5.1197815 -13.748016 1.8582458z" fill-rule="nonzero"></path><path fill="#cfe2f3" d="m359.83466 290.31476l0 0c-3.1049805 -3.2615051 -1.9839172 -9.38147 2.5039368 -13.669281q4.742096 -4.5307007 8.544495 -10.048462q1.9226685 4.743927 5.2035522 8.190186l0 0c3.10495 3.2615356 1.9839172 9.38147 -2.5039368 13.669312l0 0c-4.4878845 4.2878113 -10.643066 5.1197815 -13.748047 1.8582458z" fill-rule="nonzero"></path><path fill="#cfe2f3" d="m393.36484 555.55115l0 -8.109619l0 0c0 -4.478821 3.631073 -8.109619 8.1102295 -8.109619c4.4791565 0 8.1102295 3.6307983 8.1102295 8.109619l0 8.109619z" fill-rule="nonzero"></path><path stroke="#999999" stroke-width="1.0" stroke-linejoin="round" stroke-linecap="butt" stroke-dasharray="4.0,3.0" d="m393.36484 555.55115l0 -8.109619l0 0c0 -4.478821 3.631073 -8.109619 8.1102295 -8.109619c4.4791565 0 8.1102295 3.6307983 8.1102295 8.109619l0 8.109619z" fill-rule="nonzero"></path><path fill="#cfe2f3" d="m409.75854 555.55115l0 -8.109619l0 0c0 -4.478821 3.631073 -8.109619 8.1102295 -8.109619c4.4791565 0 8.1102295 3.6307983 8.1102295 8.109619l0 8.109619z" fill-rule="nonzero"></path><path stroke="#999999" stroke-width="1.0" stroke-linejoin="round" stroke-linecap="butt" stroke-dasharray="4.0,3.0" d="m409.75854 555.55115l0 -8.109619l0 0c0 -4.478821 3.631073 -8.109619 8.1102295 -8.109619c4.4791565 0 8.1102295 3.6307983 8.1102295 8.109619l0 8.109619z" fill-rule="nonzero"></path><path fill="#cfe2f3" d="m425.979 555.55115l0 -8.109619l0 0c0 -4.478821 3.631073 -8.109619 8.1102295 -8.109619c4.4791565 0 8.1102295 3.6307983 8.1102295 8.109619l0 8.109619z" fill-rule="nonzero"></path><path stroke="#999999" stroke-width="1.0" stroke-linejoin="round" stroke-linecap="butt" stroke-dasharray="4.0,3.0" d="m425.979 555.55115l0 -8.109619l0 0c0 -4.478821 3.631073 -8.109619 8.1102295 -8.109619c4.4791565 0 8.1102295 3.6307983 8.1102295 8.109619l0 8.109619z" fill-rule="nonzero"></path><path fill="#cfe2f3" d="m581.2493 555.55115l0 -8.109619l0 0c0 -4.478821 3.6311035 -8.109619 8.1102295 -8.109619c4.479187 0 8.1102295 3.6307983 8.1102295 8.109619l0 8.109619z" fill-rule="nonzero"></path><path stroke="#999999" stroke-width="1.0" stroke-linejoin="round" stroke-linecap="butt" stroke-dasharray="4.0,3.0" d="m581.2493 555.55115l0 -8.109619l0 0c0 -4.478821 3.6311035 -8.109619 8.1102295 -8.109619c4.479187 0 8.1102295 3.6307983 8.1102295 8.109619l0 8.109619z" fill-rule="nonzero"></path><path fill="#cfe2f3" d="m597.64307 555.55115l0 -8.109619l0 0c0 -4.478821 3.6310425 -8.109619 8.1102295 -8.109619c4.479126 0 8.1102295 3.6307983 8.1102295 8.109619l0 8.109619z" fill-rule="nonzero"></path><path stroke="#999999" stroke-width="1.0" stroke-linejoin="round" stroke-linecap="butt" stroke-dasharray="4.0,3.0" d="m597.64307 555.55115l0 -8.109619l0 0c0 -4.478821 3.6310425 -8.109619 8.1102295 -8.109619c4.479126 0 8.1102295 3.6307983 8.1102295 8.109619l0 8.109619z" fill-rule="nonzero"></path><path fill="#cfe2f3" d="m613.8635 555.55115l0 -8.109619l0 0c0 -4.478821 3.6310425 -8.109619 8.1102295 -8.109619c4.479187 0 8.1102295 3.6307983 8.1102295 8.109619l0 8.109619z" fill-rule="nonzero"></path><path stroke="#999999" stroke-width="1.0" stroke-linejoin="round" stroke-linecap="butt" stroke-dasharray="4.0,3.0" d="m613.8635 555.55115l0 -8.109619l0 0c0 -4.478821 3.6310425 -8.109619 8.1102295 -8.109619c4.479187 0 8.1102295 3.6307983 8.1102295 8.109619l0 8.109619z" fill-rule="nonzero"></path><path fill="#000000" fill-opacity="0.0" d="m728.4908 368.80057c6.493103 0 15.402039 -4.3628235 16.207397 -10.805786c0.543396 -4.347107 -6.9363403 -11.585968 -10.034119 -8.48819c-1.8192139 1.8191833 2.0598145 6.1732483 4.6325073 6.1732483" fill-rule="evenodd"></path><path stroke="#cfe2f3" stroke-width="2.0" stroke-linejoin="round" stroke-linecap="butt" d="m728.4908 368.80057c6.493103 0 15.402039 -4.3628235 16.207397 -10.805786c0.543396 -4.347107 -6.9363403 -11.585968 -10.034119 -8.48819c-1.8192139 1.8191833 2.0598145 6.1732483 4.6325073 6.1732483" fill-rule="evenodd"></path><path fill="#cfe2f3" d="m288.61942 316.3386l0 0c0 -17.907959 23.44336 -32.4252 52.362213 -32.4252l0 0c28.918854 0 52.362213 14.517242 52.362213 32.4252l0 0c0 17.907928 -23.44336 32.4252 -52.362213 32.4252l0 0c-28.918854 0 -52.362213 -14.517273 -52.362213 -32.4252z" fill-rule="nonzero"></path><path fill="#999999" d="m300.96588 316.3386l0 0c0 -4.4791565 3.6592712 -8.11026 8.173218 -8.11026l0 0c2.167694 0 4.246582 0.8544922 5.779358 2.3754578c1.5327759 1.5209656 2.3938904 3.5838318 2.3938904 5.7348022l0 0c0 4.4791565 -3.6593018 8.1102295 -8.173248 8.1102295l0 0c-4.5139465 0 -8.173218 -3.631073 -8.173218 -8.1102295z" fill-rule="nonzero"></path><path stroke="#999999" stroke-width="1.0" stroke-linejoin="round" stroke-linecap="butt" d="m300.96588 316.3386l0 0c0 -4.4791565 3.6592712 -8.11026 8.173218 -8.11026l0 0c2.167694 0 4.246582 0.8544922 5.779358 2.3754578c1.5327759 1.5209656 2.3938904 3.5838318 2.3938904 5.7348022l0 0c0 4.4791565 -3.6593018 8.1102295 -8.173248 8.1102295l0 0c-4.5139465 0 -8.173218 -3.631073 -8.173218 -8.1102295z" fill-rule="nonzero"></path><path fill="#000000" fill-opacity="0.0" d="m292.8399 316.3386l0 0c0 -6.6100464 5.4783325 -11.968506 12.236206 -11.968506l0 0c3.2452393 0 6.3575745 1.2609558 8.652313 3.5054932c2.2947388 2.2445374 3.5839233 5.2887573 3.5839233 8.463013l0 0c0 6.610016 -5.478363 11.968506 -12.236237 11.968506l0 0c-6.7578735 0 -12.236206 -5.35849 -12.236206 -11.968506z" fill-rule="nonzero"></path><path stroke="#999999" stroke-width="1.0" stroke-linejoin="round" stroke-linecap="butt" d="m292.8399 316.3386l0 0c0 -6.6100464 5.4783325 -11.968506 12.236206 -11.968506l0 0c3.2452393 0 6.3575745 1.2609558 8.652313 3.5054932c2.2947388 2.2445374 3.5839233 5.2887573 3.5839233 8.463013l0 0c0 6.610016 -5.478363 11.968506 -12.236237 11.968506l0 0c-6.7578735 0 -12.236206 -5.35849 -12.236206 -11.968506z" fill-rule="nonzero"></path><path fill="#000000" fill-opacity="0.0" d="m324.6824 324.43307l0 0c0 -6.610016 5.478363 -11.968506 12.236237 -11.968506l0 0c3.2452393 0 6.3575745 1.2609558 8.652313 3.5054932c2.2947388 2.2445374 3.5838928 5.2887573 3.5838928 8.463013l0 0c0 6.610016 -5.4783325 11.968506 -12.236206 11.968506l0 0c-6.7578735 0 -12.236237 -5.35849 -12.236237 -11.968506z" fill-rule="nonzero"></path><path stroke="#999999" stroke-width="1.0" stroke-linejoin="round" stroke-linecap="butt" d="m324.6824 324.43307l0 0c0 -6.610016 5.478363 -11.968506 12.236237 -11.968506l0 0c3.2452393 0 6.3575745 1.2609558 8.652313 3.5054932c2.2947388 2.2445374 3.5838928 5.2887573 3.5838928 8.463013l0 0c0 6.610016 -5.4783325 11.968506 -12.236206 11.968506l0 0c-6.7578735 0 -12.236237 -5.35849 -12.236237 -11.968506z" fill-rule="nonzero"></path><path fill="#999999" d="m332.8084 324.43307l0 0c0 -4.4791565 3.6592712 -8.1102295 8.173218 -8.1102295l0 0c2.1676636 0 4.2465515 0.85446167 5.779358 2.3754272c1.5327759 1.5209656 2.3938599 3.5838318 2.3938599 5.7348022l0 0c0 4.4791565 -3.6592712 8.1102295 -8.173218 8.1102295l0 0c-4.5139465 0 -8.173218 -3.631073 -8.173218 -8.1102295z" fill-rule="nonzero"></path><path stroke="#999999" stroke-width="1.0" stroke-linejoin="round" stroke-linecap="butt" d="m332.8084 324.43307l0 0c0 -4.4791565 3.6592712 -8.1102295 8.173218 -8.1102295l0 0c2.1676636 0 4.2465515 0.85446167 5.779358 2.3754272c1.5327759 1.5209656 2.3938599 3.5838318 2.3938599 5.7348022l0 0c0 4.4791565 -3.6592712 8.1102295 -8.173218 8.1102295l0 0c-4.5139465 0 -8.173218 -3.631073 -8.173218 -8.1102295z" fill-rule="nonzero"></path><path fill="#f4cccc" d="m509.87665 256.83728l0 0c0 -9.193161 10.935547 -16.645676 24.42517 -16.645676l0 0c13.489685 0 24.425232 7.4525146 24.425232 16.645676l0 0c0 9.193146 -10.935547 16.64566 -24.425232 16.64566l0 0c-13.489624 0 -24.42517 -7.4525146 -24.42517 -16.64566z" fill-rule="nonzero"></path><path stroke="#999999" stroke-width="1.0" stroke-linejoin="round" stroke-linecap="butt" stroke-dasharray="1.0,3.0" d="m509.87665 256.83728l0 0c0 -9.193161 10.935547 -16.645676 24.42517 -16.645676l0 0c13.489685 0 24.425232 7.4525146 24.425232 16.645676l0 0c0 9.193146 -10.935547 16.64566 -24.425232 16.64566l0 0c-13.489624 0 -24.42517 -7.4525146 -24.42517 -16.64566z" fill-rule="nonzero"></path><path fill="#f4cccc" d="m493.9029 239.90814l0 0c0 -7.549347 5.873169 -13.669296 13.118103 -13.669296l0 0c3.479126 0 6.815796 1.440155 9.275879 4.003647c2.460144 2.5634918 3.8422241 6.040329 3.8422241 9.665649l0 0c0 7.5493317 -5.873169 13.669281 -13.118103 13.669281l0 0c-7.244934 0 -13.118103 -6.1199493 -13.118103 -13.669281z" fill-rule="nonzero"></path><path stroke="#999999" stroke-width="1.0" stroke-linejoin="round" stroke-linecap="butt" stroke-dasharray="1.0,3.0" d="m493.9029 239.90814l0 0c0 -7.549347 5.873169 -13.669296 13.118103 -13.669296l0 0c3.479126 0 6.815796 1.440155 9.275879 4.003647c2.460144 2.5634918 3.8422241 6.040329 3.8422241 9.665649l0 0c0 7.5493317 -5.873169 13.669281 -13.118103 13.669281l0 0c-7.244934 0 -13.118103 -6.1199493 -13.118103 -13.669281z" fill-rule="nonzero"></path><path fill="#000000" fill-opacity="0.0" d="m534.3018 273.48294l0 0" fill-rule="nonzero"></path><path stroke="#000000" stroke-width="1.0" stroke-linejoin="round" stroke-linecap="butt" d="m534.3018 273.48294l0 0" fill-rule="nonzero"></path><path fill="#000000" fill-opacity="0.0" d="m525.68243 285.85828l3.8740234 -16.97638" fill-rule="nonzero"></path><path stroke="#f4cccc" stroke-width="1.0" stroke-linejoin="round" stroke-linecap="butt" d="m526.52563 282.16327l3.0308228 -13.281372" fill-rule="evenodd"></path><path fill="#f4cccc" stroke="#f4cccc" stroke-width="1.0" stroke-linecap="butt" d="m525.79364 285.3708c-0.8857422 -0.20211792 -1.4398804 -1.0840149 -1.237793 -1.9697571c0.20214844 -0.88571167 1.0840454 -1.4399109 1.9697876 -1.2377625c0.8857422 0.20211792 1.4398804 1.0840149 1.237793 1.9697266c-0.20214844 0.8857422 -1.0840454 1.4399414 -1.9697876 1.237793z" fill-rule="nonzero"></path><path fill="#000000" fill-opacity="0.0" d="m544.0551 287.9685l-5.0078735 -21.196838" fill-rule="nonzero"></path><path stroke="#f4cccc" stroke-width="1.0" stroke-linejoin="round" stroke-linecap="butt" d="m543.1837 284.28003l-4.1364746 -17.508362" fill-rule="evenodd"></path><path fill="#f4cccc" stroke="#f4cccc" stroke-width="1.0" stroke-linecap="butt" d="m543.9402 287.4819c-0.8842163 0.20889282 -1.7703247 -0.3385315 -1.979187 -1.2227173c-0.2088623 -0.8841553 0.338562 -1.7702637 1.2227173 -1.979126c0.8841553 -0.20889282 1.7702637 0.3385315 1.979126 1.2226868c0.20892334 0.8841553 -0.33850098 1.7702637 -1.2226562 1.9791565z" fill-rule="nonzero"></path><path fill="#cfe2f3" d="m227.16466 384.34177l0 0c0.76498413 -7.2312317 7.089691 -12.601471 14.392654 -12.220642c7.3029785 0.38082886 13.027985 6.3793945 13.027985 13.650543l-6.8346405 0c0 -3.6347961 -2.8777008 -6.633728 -6.54924 -6.825165c-3.6715546 -0.19146729 -6.8524017 2.4915466 -7.2391663 6.1061707z" fill-rule="nonzero"></path><path stroke="#999999" stroke-width="1.0" stroke-linejoin="round" stroke-linecap="butt" stroke-dasharray="1.0,3.0" d="m227.16466 384.34177l0 0c0.76498413 -7.2312317 7.089691 -12.601471 14.392654 -12.220642c7.3029785 0.38082886 13.027985 6.3793945 13.027985 13.650543l-6.8346405 0c0 -3.6347961 -2.8777008 -6.633728 -6.54924 -6.825165c-3.6715546 -0.19146729 -6.8524017 2.4915466 -7.2391663 6.1061707z" fill-rule="nonzero"></path><path fill="#cfe2f3" d="m261.1988 384.34177l0 0c0.76498413 -7.2312317 7.089691 -12.601471 14.392639 -12.220642c7.3029785 0.38082886 13.027985 6.3793945 13.027985 13.650543l-6.8346252 0c0 -3.6347961 -2.877716 -6.633728 -6.5492554 -6.825165c-3.6715393 -0.19146729 -6.8523865 2.4915466 -7.2391663 6.1061707z" fill-rule="nonzero"></path><path stroke="#999999" stroke-width="1.0" stroke-linejoin="round" stroke-linecap="butt" stroke-dasharray="1.0,3.0" d="m261.1988 384.34177l0 0c0.76498413 -7.2312317 7.089691 -12.601471 14.392639 -12.220642c7.3029785 0.38082886 13.027985 6.3793945 13.027985 13.650543l-6.8346252 0c0 -3.6347961 -2.877716 -6.633728 -6.5492554 -6.825165c-3.6715393 -0.19146729 -6.8523865 2.4915466 -7.2391663 6.1061707z" fill-rule="nonzero"></path><path fill="#f4cccc" d="m544.05493 247.79771l33.62207 -18.425186l-23.196838 30.519684z" fill-rule="nonzero"></path><path fill="#000000" fill-opacity="0.0" d="m500.7848 239.90814l0 0c0 -3.4963531 2.7920227 -6.330719 6.236206 -6.330719l0 0c1.6539612 0 3.2401428 0.6669922 4.409668 1.8542328c1.1695557 1.1872253 1.8265381 2.79747 1.8265381 4.476486l0 0c0 3.4963531 -2.7920227 6.3307037 -6.236206 6.3307037l0 0c-3.4441833 0 -6.236206 -2.8343506 -6.236206 -6.3307037z" fill-rule="nonzero"></path><path stroke="#999999" stroke-width="1.0" stroke-linejoin="round" stroke-linecap="butt" d="m500.7848 239.90814l0 0c0 -3.4963531 2.7920227 -6.330719 6.236206 -6.330719l0 0c1.6539612 0 3.2401428 0.6669922 4.409668 1.8542328c1.1695557 1.1872253 1.8265381 2.79747 1.8265381 4.476486l0 0c0 3.4963531 -2.7920227 6.3307037 -6.236206 6.3307037l0 0c-3.4441833 0 -6.236206 -2.8343506 -6.236206 -6.3307037z" fill-rule="nonzero"></path><path fill="#999999" d="m500.34122 241.60892l0 0c0 -2.278717 1.7273865 -4.1259766 3.8582458 -4.1259766l0 0c1.0232849 0 2.0046387 0.43469238 2.7282104 1.2084656c0.7235718 0.7737732 1.1300659 1.8232422 1.1300659 2.917511l0 0c0 2.2787323 -1.727417 4.125992 -3.8582764 4.125992l0 0c-2.1308594 0 -3.8582458 -1.8472595 -3.8582458 -4.125992z" fill-rule="nonzero"></path><path stroke="#999999" stroke-width="1.0" stroke-linejoin="round" stroke-linecap="butt" d="m500.34122 241.60892l0 0c0 -2.278717 1.7273865 -4.1259766 3.8582458 -4.1259766l0 0c1.0232849 0 2.0046387 0.43469238 2.7282104 1.2084656c0.7235718 0.7737732 1.1300659 1.8232422 1.1300659 2.917511l0 0c0 2.2787323 -1.727417 4.125992 -3.8582764 4.125992l0 0c-2.1308594 0 -3.8582458 -1.8472595 -3.8582458 -4.125992z" fill-rule="nonzero"></path><path fill="#000000" fill-opacity="0.0" d="m556.51447 255.4357l0 0c-8.462585 9.967224 -22.740112 11.758087 -31.88977 4.0l15.322815 -18.047241z" fill-rule="nonzero"></path><path fill="#000000" fill-opacity="0.0" d="m556.51447 255.4357l0 0c-8.462585 9.967224 -22.740112 11.758087 -31.88977 4.0" fill-rule="nonzero"></path><path stroke="#999999" stroke-width="1.0" stroke-linejoin="round" stroke-linecap="butt" stroke-dasharray="1.0,3.0" d="m556.51447 255.4357l0 0c-8.462585 9.967224 -22.740112 11.758087 -31.88977 4.0" fill-rule="nonzero"></path><path fill="#f4cccc" d="m498.5223 246.88452l-20.188965 -5.2756042l20.188965 -5.275589z" fill-rule="nonzero"></path></g></svg>

